<svg id="Layer_1" data-name="Layer 1" xmlns="http://www.w3.org/2000/svg" viewBox="0 0 510.67 502.35"><defs><style>.cls-1{fill:#0080ff;}.cls-2{fill:none;stroke:#fafcfb;stroke-miterlimit:10;}.cls-3{fill:#2d88ff;}.cls-4{fill:#1034a6;}</style></defs><path class="cls-1" d="M2349,481s-98,7-99,145c0,0-10,159-21,167,0,0-207.5-23.5-296.5,48.5,0,0-11,10,0,19,0,0,278-100,335,41,0,0-61-62-241-30,0,0-45,11-48,21,0,0,6-7,37,6,0,0,106-16,180,6,0,0,51-49,92,33,0,0,42-77-16-134,0,0,13-88,8-110,0,0-15-165,70-179Z" transform="translate(-1838.83 -481)"/><path d="M2266.45,911.55c-19.89-19.88-48-24-62.87-9.13s-10.76,43,9.13,62.87,48,24,62.87,9.13S2286.33,931.44,2266.45,911.55ZM2264,960c-7.75,7.75-22.31,5.74-32.53-4.47S2219.25,930.75,2227,923s22.32-5.75,32.54,4.46S2271.75,952.25,2264,960Z" transform="translate(-1838.83 -481)"/><ellipse class="cls-2" cx="2245.5" cy="941.5" rx="19.84" ry="26.16" transform="translate(-1846.88 1382.56) rotate(-45)"/><path d="M2026.44,911.55c-19.88-19.88-48-24-62.87-9.12s-10.75,43,9.14,62.87,48,24,62.87,9.12S2046.33,931.43,2026.44,911.55ZM2025,960c-7.75,7.75-22.32,5.75-32.54-4.46S1980.25,930.75,1988,923s22.32-5.75,32.54,4.46S2032.76,952.24,2025,960Z" transform="translate(-1838.83 -481)"/><ellipse class="cls-2" cx="2006.5" cy="941.5" rx="19.84" ry="26.16" transform="translate(-1916.88 1213.57) rotate(-45)"/><path class="cls-3" d="M1893.45,665.75s185-59.25,318-24.25c0,0-162.33-6.09-307.67,48.46Z" transform="translate(-1838.83 -481)"/><path class="cls-3" d="M1924.91,731.71S2061.5,643.5,2186.5,696.5c0,0-156.72-2.62-248.36,58.69Z" transform="translate(-1838.83 -481)"/><path class="cls-3" d="M1898.5,596.5l36-15s84,90,103,208C2037.5,789.5,2015.5,717.5,1898.5,596.5Z" transform="translate(-1838.83 -481)"/><path class="cls-3" d="M1977.5,572.5h29s79,74,75,183C2081.5,755.5,2033.5,624.5,1977.5,572.5Z" transform="translate(-1838.83 -481)"/><path class="cls-3" d="M2071.5,572.5h30s42,101,37,153C2138.5,725.5,2092.5,597.5,2071.5,572.5Z" transform="translate(-1838.83 -481)"/><path class="cls-4" d="M1965.5,799.5s-120-100-126-167c0,0-18-78,133-74,0,0,114-2,263,30,0,0-245-9-266-1,0,0-108,2-78,73C1891.5,660.5,1909.5,713.5,1965.5,799.5Z" transform="translate(-1838.83 -481)"/></svg>